<svg preserveAspectRatio="none" overflow="visible" style="display: block;" width="20" height="20" viewBox="0 0 20 20" fill="none" xmlns="http://www.w3.org/2000/svg">
<g id="RadarOutlined">
<path id="Vector" d="M16.45 15.275C17.625 13.8333 18.3333 12 18.3333 10C18.3333 5.4 14.6 1.66667 10 1.66667C5.4 1.66667 1.66667 5.4 1.66667 10C1.66667 14.6 5.4 18.3333 10 18.3333C12 18.3333 13.8333 17.625 15.275 16.45C15.5 16.2667 15.7167 16.0667 15.925 15.8583C15.95 15.8333 15.9667 15.8083 15.9833 15.7917C16.15 15.625 16.3083 15.45 16.45 15.275ZM10 16.6667C6.325 16.6667 3.33333 13.675 3.33333 10C3.33333 6.325 6.325 3.33333 10 3.33333C13.675 3.33333 16.6667 6.325 16.6667 10C16.6667 11.5417 16.1417 12.95 15.2583 14.0833L14.0667 12.8917C14.6417 12.075 14.9833 11.0833 14.9833 10.0083C14.9833 7.25 12.7417 5.00833 9.98333 5.00833C7.225 5.00833 4.98333 7.25 4.98333 10.0083C4.98333 12.7667 7.225 15.0083 9.98333 15.0083C11.0667 15.0083 12.075 14.6583 12.8917 14.0667L14.075 15.25C12.95 16.1417 11.5417 16.6667 10 16.6667ZM11.6 10.425C11.7417 9.875 11.6167 9.275 11.1917 8.84167L11.175 8.825C10.5333 8.18333 9.50833 8.175 8.85833 8.79167C8.85 8.8 8.83333 8.80833 8.81667 8.825C8.16667 9.475 8.16667 10.5333 8.81667 11.1833L8.83333 11.2C9.26667 11.625 9.875 11.7583 10.425 11.6083L11.6833 12.8667C11.1833 13.1667 10.6083 13.35 9.98333 13.35C8.14167 13.35 6.65 11.8583 6.65 10.0167C6.65 8.175 8.14167 6.68333 9.98333 6.68333C11.825 6.68333 13.3167 8.175 13.3167 10.0167C13.3167 10.625 13.1417 11.1917 12.85 11.6833L11.6 10.425Z" fill="#9061FF"/>
</g>
</svg>
